
<svg xmlns="http://www.w3.org/2000/svg" version="1.1" xmlns:xlink="http://www.w3.org/1999/xlink" preserveAspectRatio="none" x="0px" y="0px" width="210px" height="630px" viewBox="0 0 210 630">
<defs>
<g id="Layer0_0_MEMBER_0_MEMBER_0_MEMBER_0_FILL">
<path fill="#FFFFFF" stroke="none" d="
M 49.5 31.65
Q 49.5 30.7 48.8 29.9 48.15 29.25 47.2 29.25
L 44.4 29.25 44.4 23.9
Q 44.4 20.45 41.7 17.75 38.8 14.85 34.9 14.75 31.1 14.75 28.1 17.65 25.35 20.55 25.35 23.9
L 25.35 29.25 22.75 29.25
Q 21.9 29.25 21.1 29.9 20.5 30.6 20.5 31.5
L 20.5 48.8
Q 20.5 49.85 21.1 50.5 21.85 51.1 22.75 51.1
L 47.2 51.1
Q 48.2 51.1 48.8 50.5 49.5 49.8 49.5 48.8
L 49.5 31.65
M 40.9 24
L 40.9 29.4 28.85 29.4 28.85 24
Q 28.85 22.05 30.5 20.3 32.2 18.4 34.9 18.4 37.55 18.4 39.25 20.3 40.9 22.05 40.9 24 Z"/>
</g>

<g id="Layer0_1_FILL">
<path fill="#FFFFFF" stroke="none" d="
M 58.15 35.6
L 58.15 11.9 23.65 11.9 14.4 21.1 14.4 52 25.1 52 25.1 60.6 33.7 52 41.75 52 58.15 35.6
M 54.2 16.1
L 54.2 34.35 47.3 41.3 39.7 41.3 33.75 47.25 33.75 41.3 25.4 41.3 25.4 16.1 54.2 16.1
M 35.55 20.65
L 35.55 33.45 46.7 27 35.55 20.65 Z"/>
</g>
</defs>

<g transform="matrix( 1, 0, 0, 1, 0,0) ">
<use xlink:href="#Layer0_0_MEMBER_0_MEMBER_0_MEMBER_0_FILL"/>
</g>

<g transform="matrix( 1, 0, 0, 1, 0,70) ">
<use xlink:href="#Layer0_1_FILL"/>
</g>
</svg>
