<svg version="1.2" xmlns="http://www.w3.org/2000/svg" viewBox="0 0 126 150" width="126" height="150">
	<title>switch-casque</title>
	<style>
		.s0 { fill: #000000 } 
		.s1 { fill: none;stroke: #42383d;stroke-miterlimit:100;stroke-width: 3 } 
		.s2 { fill: #42383d } 
		.s3 { fill: none;stroke: #000000;stroke-miterlimit:100;stroke-width: 5.8 } 
		.s4 { fill: #ffffff } 
		.s5 { fill: #d2d2d2 } 
		.s6 { fill: #efe063 } 
	</style>
	<g id="switch-casque">
		<g id="Hair">
			<path id="Left" class="s0" d="m9.8 81.4c-3.8 10.1-10 13.3-9.2 13.3 8.1 0.1 11.4-3.6 11.4-3.6-1.8 5.6-12.2 11-11.3 11.2q2.2 0.3 4.4 0.2 2.2-0.1 4.3-0.6 2.2-0.6 4.2-1.5 2-1 3.7-2.3c1.5 8.6 5 22.7 12.1 28 0.7 0.5 0.2-2.9 0.2-3.6 0.5 0.4 3 4.6 9 7.1 0 0-5.1-4.9-5.8-15.3-1-6-0.2-14-1.5-21.2q-0.1-0.6-0.3-1.1-0.1-0.6-0.3-1.1-0.2-0.6-0.4-1.1c-0.1-0.4 1.9-34.4 1.7-34.8"/>
			<path id="Right" class="s0" d="m94 43c-0.1 0.7 2.5 42.7 2.4 43.5q-0.3 1-0.6 2.1-0.3 1.1-0.7 2.1-0.3 1.1-0.7 2.1c-3 8.3-2.6 15.4-3.5 21.5-1.7 12.8-4.7 15.5-4.7 15.5 5.9-2.6 8.1-8.2 8.2-7.6 0.4 1.3-0.6 3.5-0.6 5.6q1.2-0.9 2.3-1.9 1.1-1 2.1-2.1 1-1.2 1.8-2.4 0.8-1.3 1.4-2.6c0.5 1.2 0.5 2.8 1.2 4.1 0 0 8.9-14.5 10-25.8 0.2-2.7 0.3-4.8 0.4-6.7"/>
		</g>
		<g id="Headphones">
			<path id="Cup" class="s0" d="m103 103c12-1 16-11 16-16 0-9-5-14-16-17z"/>
			<path id="Design" class="s1" d="m115 71"/>
			<path id="Cup" class="s0" d="m21 103c-12-1-16-11-16-16 0-9 5-14 16-17z"/>
			<path id="Muff Left" class="s2" d="m21 103c6 1 8-2 8-2-2-28-1-32-1-32l-9-1z"/>
			<path id="Muff Right" class="s2" d="m104 103c-6 1-8-2-8-2 2-28 1-32 1-32l9-1z"/>
			<path id="Headband" class="s3" d="m10 78c0 0-3-16-3-26 0 0 0-48 54-47 52 1 53.4 27.8 55 45 2 21-1 30-1 30"/>
		</g>
		<path id="Face" class="s4" d="m63 35c-3.4 0-27 10-30 13-2.4 2.4-4 7-4.5 13.4-0.9 11.9-0.9 13.4-0.3 20 0.5 5.9 2.6 8.5 3.1 11.7 1.3 7.2 0.5 15.2 1.5 21.2 0.7 10.4 5.8 15.3 5.8 15.3 3.2 3 2.5 2.2 6.5 7 7.3 8.6 12.1 12.4 17 12.4 5.1 0 12.2-7.2 14.7-9.4 2.5-2.3 5.4-5.6 9.4-9.8 0 0 3.1-2.7 4.7-15.5 0.9-6.1 0.5-13.3 3.5-21.6 3-8.1 2.7-11.4 2.7-11.4 1-8.6 1-29.5 1-29.5 0-1.1-31.1-16.8-35.1-16.8z"/>
		<path id="Hat" class="s5" d="m9 77c0 0-12.1-70 52-70 7 0 10-2.5 15-3 42-4 40 71 40 71l-48-43-26 6z"/>
		<path id="Hair" class="s6" d="m6 78c0 0 11.2 3.4 21-8 6-7 6-25 13-25 4 0 9 12 11 9 9.1-13.6 11.8-12.8 14-13 14-1 51.1 46.4 54 43 6-7-19-19-33-62-1.2-3.8-9-9-26-9-8 0-26 4-33 24-14.7 42.1-21 41-21 41z"/>
		<path id="Highlight" class="s4" d="m88 5c27 10 27 51 27 51 0 0-12 3.8-23-12-7-10-3-25-3-25 0 0-3-1-4-8-1.1-8 0-7.1 3-6z"/>
	</g>
</svg>