<?xml version="1.0" encoding="utf-8"?>
<svg viewBox="0 0 406.456 80" xmlns="http://www.w3.org/2000/svg">
  <defs>
    <style>.cls-1{fill:#5a5a5a;}.cls-2{fill:#aaa;}</style>
  </defs>
  <path d="M20.84,6.26A2.84,2.84,0,0,1,23.89,4h3a1.94,1.94,0,0,1,1.78.94,2.93,2.93,0,0,1,.22,2.32L11.4,76A2.84,2.84,0,0,1,8.33,78.3h-3a2,2,0,0,1-1.78-.93,2.86,2.86,0,0,1-.28-2.23Z" style="fill: rgb(255, 255, 255);"/>
  <path d="M38.41,55.13,49.08,37.42a31.33,31.33,0,0,1,7-8.4q3.58-2.82,6.14-2.82h2.16a5.07,5.07,0,0,1,2.58.55,4.19,4.19,0,0,1,1.5,2.51q.57,2-.58,5.76L56.4,76.85a1.58,1.58,0,0,1-1.65,1.45H49.38q-1.5,0-.8-2.45L59.35,40.62a17.06,17.06,0,0,0,.8-3.63q0-.88-.7-.88a2.71,2.71,0,0,0-1.68.93,21.92,21.92,0,0,0-2.63,3.39q-2,2.81-4.71,7.28t-7,11q-8,12.1-11.41,18.17a2.8,2.8,0,0,1-2.57,1.37h-3q-.63,0-1.07-.83a2.33,2.33,0,0,1-.14-1.83L37.72,28.85q.52-2.65,2.14-2.66h4.38q2.52,0,1.72,3Z" style="fill: rgb(255, 255, 255);"/>
  <path d="M102,31.91q1.65,1.75.4,3.21l-1.7,2q-1.76,2-3.11.5l-1.1-1.25q-3.71-3.76-5.86-3.26-3.71.7-7.82,7.89a55,55,0,0,0-5.89,14.83Q75.13,63.42,76,68.53a3.5,3.5,0,0,0,1.9,2.28,4,4,0,0,0,2.61.83,25,25,0,0,0,6.86-6.16q1.15-1.55,3.31-.2l1.55,1q3.26,2-5.56,9.07Q83,78.5,81,79.07t-6.23-1.53q-4.18-2.11-5.14-4.16-2.86-6.26-.08-17.81t6.81-17.66a42.1,42.1,0,0,1,7.9-9.29,11.07,11.07,0,0,1,8.32-2.76q4.46.43,9.47,6" style="fill: rgb(255, 255, 255);"/>
  <path d="M116.46,39.93a90.57,90.57,0,0,1,6-8.82,24.52,24.52,0,0,1,4.06-4.38,8.33,8.33,0,0,1,4.48-.88h1q3,0,2.05,2.3a9.71,9.71,0,0,1-2.51,3,52.86,52.86,0,0,0-5.44,6.16q-3.43,4.36-3.43,5.66A6.86,6.86,0,0,0,125.28,48a.87.87,0,0,1,.35,1.08,1.44,1.44,0,0,1-1.05.78l-3.91.7a3.2,3.2,0,0,1-2.53-.35q-.88-.65-3-4.65l-7.87,30.46a2.93,2.93,0,0,1-3.12,2.24h-3q-2.92,0-2.27-2.35l12.52-47.69a2.6,2.6,0,0,1,2.87-2.05h3.17a2.62,2.62,0,0,1,1.81.45q.45.45.15,1.71Z" style="fill: rgb(255, 255, 255);"/>
  <path d="M135.26,64q-1.4,7.61,2.79,8.42,3.74-1.42,9.27-7.75a1.57,1.57,0,0,1,2-.2l1.94,1.21a1.93,1.93,0,0,1,.9,2.28q-2,3.74-7.21,7.94t-8.47,3.59q-7.26-1.87-8.52-7.69-1.45-7.79,2.56-21.27T141.74,30.2A15.82,15.82,0,0,1,148,26.77a11.42,11.42,0,0,1,7.9.63q4.16,1.75,4.11,10T152.78,53a45.11,45.11,0,0,1-17.52,11m1.25-6.56a34.86,34.86,0,0,0,8.19-4.81,22.93,22.93,0,0,0,5.63-6.71,16.41,16.41,0,0,0,2.22-8.12q0-4.16-2.39-4.16-4.68,0-8.19,7.69a84.19,84.19,0,0,0-5.45,16.11" style="fill: rgb(255, 255, 255);"/>
  <path d="M205.32,3,185.81,70.64A35.3,35.3,0,0,0,192,63.72q1.1-1.65,2.55-.7L197,64.67q1.66,1.1.5,2.55a54.54,54.54,0,0,1-7.74,7.64,21.19,21.19,0,0,1-8.45,3.83,1.45,1.45,0,0,1-1.9-1.1l-2-5.66a25.46,25.46,0,0,1-4.46,4.76q-2.36,1.9-3.85,1.9h-.21q-2,0-5.31-3.38a10.72,10.72,0,0,1-3.41-7.29q-.1-8,4.53-20.84t8.66-16.81a13.32,13.32,0,0,1,10-3.88,12.27,12.27,0,0,1,6.46,1.85L196.68,2.7A3.12,3.12,0,0,1,200,.45h2.86Q206,.45,205.32,3M188.26,34q-5.11-2.86-8.54-.4t-6.56,10.92a117.34,117.34,0,0,0-4.56,14.88q-1.43,6.41-.4,8.87t3.38.4q4.81-3,8.64-11.24t8-23.43" style="fill: rgb(255, 255, 255);"/>
  <path d="M218.81,28.36,206.39,76.05a2.85,2.85,0,0,1-3.07,2.24h-3q-2.87,0-2.27-2.36l12.52-47.69a2.59,2.59,0,0,1,2.86-2.05h3.41a2.6,2.6,0,0,1,1.8.45q.45.45.19,1.71m-1.89-17.79h1A4.29,4.29,0,0,1,221,12.12a5.06,5.06,0,0,1,1.45,3.56,4.57,4.57,0,0,1-1.5,3.43,5.24,5.24,0,0,1-3.76,1.43h-.8a4.18,4.18,0,0,1-3.13-1.48,5.05,5.05,0,0,1,.05-7,4.73,4.73,0,0,1,3.58-1.5" style="fill: rgb(255, 255, 255);"/>
  <path d="M 218.075 75.912 L 230.374 28.774 C 230.431 28.546 230.492 28.319 230.557 28.093 C 230.818 27.19 231.063 26.643 231.291 26.453 C 231.558 26.229 231.906 26.111 232.336 26.1 C 232.36 26.099 232.384 26.099 232.407 26.099 L 236.573 26.099 C 236.817 26.096 237.062 26.122 237.301 26.177 C 238.405 26.446 238.708 27.413 238.21 29.077 L 230.572 55.119 L 241.135 37.353 C 243.185 33.888 245.458 31.145 247.954 29.126 C 250.45 27.108 252.508 26.099 254.128 26.099 L 256.26 26.099 C 256.579 26.098 256.897 26.116 257.213 26.153 C 257.537 26.193 257.832 26.254 258.099 26.338 C 258.349 26.414 258.589 26.52 258.815 26.654 C 259.04 26.796 259.238 26.979 259.398 27.195 C 259.75 27.65 260.051 28.311 260.303 29.177 C 260.377 29.439 260.428 29.707 260.456 29.978 C 260.591 31.234 260.35 32.902 259.732 34.982 L 254.574 54.312 L 264.294 37.253 C 265.026 35.949 265.834 34.69 266.714 33.484 C 267.592 32.291 268.493 31.243 269.42 30.341 C 269.954 29.818 270.52 29.328 271.113 28.874 C 273.194 27.289 275.003 26.383 276.538 26.156 C 276.786 26.119 277.036 26.1 277.287 26.099 L 279.42 26.099 C 279.738 26.098 280.056 26.116 280.372 26.153 C 280.696 26.193 280.991 26.254 281.258 26.338 C 281.508 26.414 281.748 26.52 281.973 26.654 C 282.2 26.797 282.399 26.983 282.559 27.202 C 282.843 27.575 283.09 28.084 283.301 28.731 C 283.35 28.878 283.395 29.027 283.436 29.177 C 283.506 29.436 283.555 29.701 283.582 29.969 C 283.714 31.224 283.484 32.89 282.894 34.968 C 282.893 34.973 282.892 34.977 282.891 34.982 L 271.534 77.123 C 271.484 77.345 271.406 77.56 271.303 77.761 C 271.049 78.242 270.659 78.513 270.135 78.574 C 270.056 78.583 269.977 78.587 269.898 78.587 L 264.591 78.587 C 264.436 78.59 264.282 78.564 264.136 78.511 C 263.529 78.271 263.416 77.472 263.798 76.114 L 274.46 40.634 C 274.913 39.048 275.172 37.926 275.237 37.266 C 275.247 37.169 275.253 37.072 275.253 36.975 C 275.255 36.867 275.245 36.758 275.225 36.652 C 275.159 36.321 274.977 36.136 274.68 36.099 C 274.64 36.094 274.6 36.092 274.56 36.092 C 274.389 36.095 274.22 36.131 274.062 36.197 C 273.785 36.308 273.483 36.505 273.155 36.79 C 273.068 36.866 272.982 36.945 272.898 37.025 C 272.412 37.495 271.799 38.256 271.06 39.309 C 270.8 39.679 270.544 40.054 270.294 40.432 C 269.696 41.308 269.11 42.191 268.536 43.083 C 267.949 43.994 267.342 44.959 266.714 45.98 C 266.501 46.325 266.29 46.671 266.079 47.018 C 265.671 47.691 265.261 48.363 264.848 49.033 C 263.714 50.879 262.381 53.022 260.848 55.462 C 260.592 55.869 260.336 56.277 260.079 56.684 C 258.053 59.899 256.59 62.261 255.69 63.771 C 255.514 64.065 255.341 64.36 255.17 64.657 C 254.275 66.128 253.4 67.611 252.545 69.106 C 250.788 72.184 249.398 74.856 248.375 77.123 C 248.28 77.344 248.165 77.556 248.031 77.755 C 247.652 78.31 247.188 78.587 246.639 78.587 L 241.432 78.587 C 241.277 78.59 241.123 78.564 240.977 78.511 C 240.371 78.271 240.258 77.472 240.639 76.114 L 251.301 40.634 C 251.755 39.048 252.014 37.926 252.078 37.266 C 252.088 37.169 252.094 37.072 252.094 36.975 C 252.095 36.867 252.086 36.758 252.066 36.652 C 251.999 36.321 251.818 36.136 251.52 36.099 C 251.481 36.094 251.441 36.092 251.401 36.092 C 251.23 36.095 251.061 36.131 250.903 36.197 C 250.626 36.308 250.324 36.505 249.996 36.79 C 249.908 36.866 249.823 36.945 249.739 37.025 C 249.253 37.495 248.64 38.256 247.901 39.309 C 247.641 39.679 247.386 40.054 247.136 40.432 C 245.846 42.316 244.292 44.755 242.474 47.75 C 240.656 50.745 238.358 54.446 235.581 58.853 C 230.452 66.816 226.79 72.831 224.593 76.9 C 224.553 76.975 224.513 77.049 224.472 77.123 C 224.297 77.458 224.061 77.756 223.777 78.001 C 223.311 78.392 222.733 78.587 222.043 78.587 L 219.216 78.587 C 218.902 78.587 218.625 78.413 218.384 78.066 C 218.315 77.967 218.253 77.862 218.199 77.754 C 218.036 77.434 217.951 77.078 217.952 76.717 C 217.952 76.539 217.971 76.357 218.01 76.17 C 218.028 76.083 218.05 75.997 218.075 75.912 Z M 367.443 2.53 L 348.153 70.714 C 348.972 70.042 349.748 69.318 350.475 68.544 C 351.234 67.747 352.004 66.852 352.785 65.86 C 353.289 65.219 353.778 64.565 354.251 63.9 C 354.362 63.728 354.488 63.567 354.626 63.417 C 355.265 62.736 355.983 62.661 356.781 63.193 L 359.211 64.86 C 359.366 64.964 359.513 65.081 359.649 65.21 C 360.331 65.867 360.35 66.608 359.707 67.433 C 358.732 68.596 357.722 69.728 356.681 70.83 C 355.686 71.878 354.724 72.819 353.793 73.655 C 353.227 74.165 352.644 74.657 352.046 75.13 C 350.172 76.59 348.062 77.706 345.811 78.427 C 345.145 78.644 344.47 78.833 343.789 78.991 C 343.707 79.008 343.625 79.021 343.543 79.03 C 342.724 79.123 342.194 78.739 341.953 77.88 L 340.02 72.178 C 339.334 73.153 338.589 74.083 337.789 74.963 C 337.138 75.679 336.442 76.35 335.705 76.973 C 335.355 77.269 334.992 77.548 334.617 77.811 C 333.582 78.53 332.705 78.89 331.986 78.89 L 331.787 78.89 C 330.507 78.89 328.812 77.771 326.701 75.533 C 326.685 75.516 326.67 75.5 326.655 75.483 C 325.884 74.675 325.214 73.773 324.66 72.798 C 323.851 71.38 323.403 69.779 323.356 68.14 C 323.291 62.757 324.787 55.758 327.844 47.144 C 330.903 38.531 333.763 32.887 336.424 30.212 C 339.02 27.603 342.222 26.299 346.029 26.299 C 346.125 26.298 346.221 26.299 346.317 26.301 C 348.565 26.301 350.698 26.923 352.715 28.168 L 359.508 2.428 C 359.938 0.914 360.963 0.157 362.584 0.157 L 365.211 0.157 C 365.49 0.155 365.769 0.175 366.045 0.216 C 367.366 0.426 367.833 1.198 367.443 2.53 Z M 316.613 25.746 L 318.943 25.644 C 321.329 25.709 322.261 26.865 321.738 29.112 C 321.717 29.202 321.695 29.291 321.67 29.38 L 309.472 70.714 C 310.449 69.975 311.366 69.157 312.214 68.267 C 313.032 67.419 313.848 66.466 314.662 65.407 C 315.041 64.913 315.411 64.411 315.77 63.9 C 315.883 63.732 316.01 63.573 316.149 63.426 C 316.808 62.737 317.525 62.659 318.298 63.193 L 320.778 64.86 C 320.932 64.966 321.077 65.085 321.211 65.217 C 321.866 65.873 321.887 66.611 321.274 67.433 C 320.299 68.596 319.289 69.728 318.248 70.83 C 317.253 71.878 316.291 72.819 315.36 73.655 C 314.793 74.165 314.211 74.657 313.612 75.13 C 311.81 76.534 309.787 77.617 307.628 78.333 C 306.865 78.591 306.09 78.811 305.306 78.991 C 304.534 79.103 303.981 78.864 303.646 78.276 C 303.575 78.15 303.516 78.017 303.47 77.88 L 301.586 72.178 C 299.992 74.304 298.592 75.878 297.386 76.899 C 297.157 77.093 296.921 77.278 296.677 77.451 C 296.374 77.667 296.065 77.871 295.748 78.064 C 294.836 78.615 294.104 78.89 293.553 78.89 L 293.354 78.89 C 292.792 78.89 291.957 78.495 290.85 77.704 C 290.269 77.286 289.716 76.829 289.195 76.335 C 288.645 75.817 288.098 75.239 287.553 74.6 C 286.693 73.605 285.999 72.474 285.499 71.25 C 285.387 70.975 285.286 70.695 285.196 70.411 C 284.729 68.934 284.749 66.279 285.257 62.448 C 285.27 62.352 285.283 62.255 285.296 62.159 C 285.486 60.824 285.737 59.499 286.046 58.188 C 286.659 55.533 287.562 52.418 288.755 48.843 C 289.137 47.701 289.529 46.563 289.932 45.429 C 290.574 43.608 291.276 41.809 292.036 40.036 C 293.472 36.71 294.928 34.055 296.406 32.072 C 296.828 31.501 297.282 30.956 297.768 30.439 C 300.217 27.802 303.624 26.306 307.19 26.303 C 307.311 26.3 307.432 26.299 307.554 26.299 C 307.648 26.298 307.741 26.299 307.835 26.301 C 309.998 26.306 312.122 26.891 313.992 27.997 C 314.089 28.053 314.186 28.11 314.282 28.168 C 314.546 26.553 315.323 25.746 316.613 25.746 Z M 312.744 33.921 C 312.178 33.596 311.592 33.308 310.99 33.059 C 309.831 32.587 308.751 32.35 307.749 32.35 C 306.349 32.339 304.993 32.854 303.942 33.795 C 302.123 35.376 300.336 38.275 298.581 42.493 C 298.125 43.595 297.697 44.709 297.296 45.833 C 296.786 47.259 296.292 48.692 295.816 50.131 C 294.476 54.184 293.565 57.504 293.082 60.09 C 292.951 60.784 292.829 61.48 292.715 62.176 C 292.36 64.355 292.206 65.941 292.251 66.935 C 292.254 67 292.258 67.065 292.263 67.13 C 292.294 67.593 292.414 68.044 292.619 68.459 C 292.879 68.973 293.276 69.393 293.811 69.721 C 293.889 69.768 293.968 69.814 294.049 69.856 C 294.238 69.954 294.448 70.004 294.661 70.001 C 295.633 70.001 296.989 69.096 298.727 67.287 C 298.983 67.02 299.233 66.749 299.479 66.474 C 300.634 65.167 301.667 63.755 302.566 62.254 C 303.854 60.131 305.04 57.668 306.124 54.867 C 306.643 53.519 307.137 52.161 307.607 50.794 C 309.147 46.334 310.86 40.71 312.744 33.921 Z M 351.177 33.921 C 350.593 33.586 349.988 33.292 349.364 33.041 C 348.246 32.597 347.198 32.375 346.218 32.375 C 344.962 32.366 343.737 32.767 342.722 33.518 C 340.895 34.848 339.133 37.492 337.435 41.448 C 337.003 42.46 336.599 43.485 336.225 44.52 C 335.489 46.541 334.793 48.577 334.138 50.627 C 333.11 53.857 332.302 56.818 331.713 59.51 C 330.856 63.425 330.669 66.242 331.151 67.96 C 331.197 68.124 331.252 68.286 331.316 68.443 C 331.93 69.936 332.903 70.366 334.235 69.735 C 334.381 69.665 334.524 69.587 334.663 69.503 C 337.806 67.437 340.633 63.647 343.144 58.134 C 343.168 58.079 343.193 58.025 343.218 57.971 C 344.091 56.014 344.895 54.027 345.626 52.011 C 347.417 47.122 349.268 41.093 351.177 33.921 Z" vector-effect="non-scaling-stroke" stroke-linecap="round" fill-rule="evenodd" font-size="9pt" stroke="#000" stroke-width="0" style="stroke: rgb(0, 0, 0); stroke-width: 0; fill: rgb(255, 255, 255);"/>
  <path class="st1" d="M 387.333 5.597 L 374.733 7.297 C 374.633 7.297 374.533 7.397 374.533 7.497 L 374.433 16.297 C 374.233 16.197 373.933 16.197 373.733 16.197 C 372.133 16.197 370.833 17.497 370.833 19.097 C 370.833 20.697 372.133 22.097 373.733 22.097 C 373.733 22.097 373.733 22.097 373.733 22.097 C 375.333 22.097 376.633 20.797 376.633 19.197 L 376.733 10.997 L 385.233 9.897 L 385.233 14.597 C 385.033 14.497 384.733 14.497 384.533 14.497 C 382.933 14.497 381.633 15.797 381.633 17.397 C 381.633 18.997 382.933 20.297 384.533 20.297 C 386.133 20.297 387.433 18.997 387.433 17.397 L 387.533 5.697 C 387.633 5.797 387.533 5.697 387.333 5.597 C 387.333 5.697 387.333 5.697 387.333 5.597" style="fill: rgb(153, 153, 153);"/>
  <path class="st2" d="M 403.533 0.597 C 403.433 0.597 403.433 0.497 403.333 0.497 L 394.833 1.697 C 394.733 1.697 394.633 1.797 394.633 1.897 L 394.633 7.797 C 394.533 7.797 394.333 7.797 394.233 7.797 C 393.133 7.797 392.133 8.697 392.133 9.897 C 392.133 11.097 393.033 11.997 394.233 11.997 C 395.333 11.997 396.233 11.097 396.333 9.897 L 396.333 4.397 L 401.933 3.697 L 401.933 6.697 C 401.833 6.697 401.633 6.697 401.533 6.697 C 400.433 6.697 399.433 7.597 399.433 8.797 C 399.433 9.997 400.333 10.897 401.533 10.897 C 402.633 10.897 403.533 9.997 403.633 8.897 L 403.633 0.997 C 403.633 0.897 403.633 0.897 403.533 0.797 L 403.533 0.597 Z" style="fill: rgb(85, 85, 85);"/>
</svg>